<svg width="34" height="51" viewBox="0 0 34 51" fill="none" xmlns="http://www.w3.org/2000/svg">
<path d="M1 49.5V44.1667C1 41.3377 2.12381 38.6246 4.12419 36.6242C6.12458 34.6238 8.83769 33.5 11.6667 33.5H22.3333C25.1623 33.5 27.8754 34.6238 29.8758 36.6242C31.8762 38.6246 33 41.3377 33 44.1667V49.5M6.33333 12.1667C6.33333 14.9956 7.45714 17.7088 9.45753 19.7091C11.4579 21.7095 14.171 22.8333 17 22.8333C19.829 22.8333 22.5421 21.7095 24.5425 19.7091C26.5429 17.7088 27.6667 14.9956 27.6667 12.1667C27.6667 9.33769 26.5429 6.62458 24.5425 4.62419C22.5421 2.62381 19.829 1.5 17 1.5C14.171 1.5 11.4579 2.62381 9.45753 4.62419C7.45714 6.62458 6.33333 9.33769 6.33333 12.1667Z" stroke="black" stroke-width="2" stroke-linecap="round" stroke-linejoin="round"/>
</svg>
