<svg width="34" height="33" viewBox="0 0 34 33" fill="none" xmlns="http://www.w3.org/2000/svg">
<path d="M24.1111 1.38889L17 8.5L9.88889 1.38889M1 12.0556C1 11.1126 1.3746 10.2082 2.0414 9.54139C2.70819 8.8746 3.61256 8.5 4.55556 8.5H29.4444C30.3874 8.5 31.2918 8.8746 31.9586 9.54139C32.6254 10.2082 33 11.1126 33 12.0556V28.0556C33 28.9985 32.6254 29.9029 31.9586 30.5697C31.2918 31.2365 30.3874 31.6111 29.4444 31.6111H4.55556C3.61256 31.6111 2.70819 31.2365 2.0414 30.5697C1.3746 29.9029 1 28.9985 1 28.0556V12.0556Z" stroke="black" stroke-width="2" stroke-linecap="round" stroke-linejoin="round"/>
</svg>
