<svg width="34" height="39" viewBox="0 0 34 39" fill="none" xmlns="http://www.w3.org/2000/svg">
<path d="M25 1.5V9.5M9 1.5V9.5M1 17.5H33M1 9.5C1 8.43913 1.42143 7.42172 2.17157 6.67157C2.92172 5.92143 3.93913 5.5 5 5.5H29C30.0609 5.5 31.0783 5.92143 31.8284 6.67157C32.5786 7.42172 33 8.43913 33 9.5V33.5C33 34.5609 32.5786 35.5783 31.8284 36.3284C31.0783 37.0786 30.0609 37.5 29 37.5H5C3.93913 37.5 2.92172 37.0786 2.17157 36.3284C1.42143 35.5783 1 34.5609 1 33.5V9.5ZM9 25.5H13V29.5H9V25.5Z" stroke="black" stroke-width="2" stroke-linecap="round" stroke-linejoin="round"/>
</svg>
