<svg width="34" height="35" viewBox="0 0 34 35" fill="none" xmlns="http://www.w3.org/2000/svg">
<path d="M17 24.6111V24.6289M17 19.2778C17.7996 19.2802 18.5766 19.013 19.2056 18.5194C19.8346 18.0259 20.2789 17.3347 20.4667 16.5575C20.6546 15.7803 20.575 14.9625 20.2408 14.2361C19.9066 13.5098 19.3373 12.9172 18.6249 12.5542C17.9176 12.1919 17.1086 12.0796 16.3294 12.2355C15.5502 12.3914 14.8467 12.8064 14.3333 13.4129M1 5.05556C1 4.11256 1.3746 3.20819 2.0414 2.5414C2.70819 1.8746 3.61256 1.5 4.55556 1.5H29.4444C30.3874 1.5 31.2918 1.8746 31.9586 2.5414C32.6254 3.20819 33 4.11256 33 5.05556V29.9444C33 30.8874 32.6254 31.7918 31.9586 32.4586C31.2918 33.1254 30.3874 33.5 29.4444 33.5H4.55556C3.61256 33.5 2.70819 33.1254 2.0414 32.4586C1.3746 31.7918 1 30.8874 1 29.9444V5.05556Z" stroke="black" stroke-width="2" stroke-linecap="round" stroke-linejoin="round"/>
</svg>
