<svg width="34" height="31" viewBox="0 0 34 31" fill="none" xmlns="http://www.w3.org/2000/svg">
<path d="M8.11111 8.38888H25.8889M8.11111 15.5H25.8889M8.11111 22.6111H25.8889M1 4.83333C1 3.89033 1.3746 2.98596 2.0414 2.31917C2.70819 1.65237 3.61256 1.27777 4.55556 1.27777H29.4444C30.3874 1.27777 31.2918 1.65237 31.9586 2.31917C32.6254 2.98596 33 3.89033 33 4.83333V26.1667C33 27.1097 32.6254 28.014 31.9586 28.6808C31.2918 29.3476 30.3874 29.7222 29.4444 29.7222H4.55556C3.61256 29.7222 2.70819 29.3476 2.0414 28.6808C1.3746 28.014 1 27.1097 1 26.1667V4.83333Z" stroke="black" stroke-width="2" stroke-linecap="round" stroke-linejoin="round"/>
</svg>
