<svg width="34" height="39" viewBox="0 0 34 39" fill="none" xmlns="http://www.w3.org/2000/svg">
<path d="M11 29.5V31.5C11 33.0913 11.6321 34.6174 12.7574 35.7426C13.8826 36.8679 15.4087 37.5 17 37.5C18.5913 37.5 20.1174 36.8679 21.2426 35.7426C22.3679 34.6174 23 33.0913 23 31.5V29.5M13 5.5C13 4.43913 13.4214 3.42172 14.1716 2.67157C14.9217 1.92143 15.9391 1.5 17 1.5C18.0609 1.5 19.0783 1.92143 19.8284 2.67157C20.5786 3.42172 21 4.43913 21 5.5C23.2968 6.58605 25.2548 8.27665 26.6641 10.3906C28.0734 12.5045 28.8809 14.9621 29 17.5V23.5C29.1505 24.7434 29.5909 25.9341 30.2856 26.9762C30.9804 28.0184 31.9101 28.8828 33 29.5H1C2.08988 28.8828 3.01962 28.0184 3.71437 26.9762C4.40913 25.9341 4.84949 24.7434 5 23.5V17.5C5.11912 14.9621 5.9266 12.5045 7.3359 10.3906C8.7452 8.27665 10.7032 6.58605 13 5.5Z" stroke="black" stroke-width="2" stroke-linecap="round" stroke-linejoin="round"/>
</svg>
