<svg width="48" height="48" viewBox="0 0 48 48" fill="none" xmlns="http://www.w3.org/2000/svg">
<path d="M14 34V34.02M14 14V14.02M34 14V14.02M34 28H28V34M40 28V28.02M28 40H34M34 34H40V40M8 10C8 9.46957 8.21071 8.96086 8.58579 8.58579C8.96086 8.21071 9.46957 8 10 8H18C18.5304 8 19.0391 8.21071 19.4142 8.58579C19.7893 8.96086 20 9.46957 20 10V18C20 18.5304 19.7893 19.0391 19.4142 19.4142C19.0391 19.7893 18.5304 20 18 20H10C9.46957 20 8.96086 19.7893 8.58579 19.4142C8.21071 19.0391 8 18.5304 8 18V10ZM28 10C28 9.46957 28.2107 8.96086 28.5858 8.58579C28.9609 8.21071 29.4696 8 30 8H38C38.5304 8 39.0391 8.21071 39.4142 8.58579C39.7893 8.96086 40 9.46957 40 10V18C40 18.5304 39.7893 19.0391 39.4142 19.4142C39.0391 19.7893 38.5304 20 38 20H30C29.4696 20 28.9609 19.7893 28.5858 19.4142C28.2107 19.0391 28 18.5304 28 18V10ZM8 30C8 29.4696 8.21071 28.9609 8.58579 28.5858C8.96086 28.2107 9.46957 28 10 28H18C18.5304 28 19.0391 28.2107 19.4142 28.5858C19.7893 28.9609 20 29.4696 20 30V38C20 38.5304 19.7893 39.0391 19.4142 39.4142C19.0391 39.7893 18.5304 40 18 40H10C9.46957 40 8.96086 39.7893 8.58579 39.4142C8.21071 39.0391 8 38.5304 8 38V30Z" stroke="black" stroke-width="2" stroke-linecap="round" stroke-linejoin="round"/>
</svg>
