<svg width="34" height="45" viewBox="0 0 34 45" fill="none" xmlns="http://www.w3.org/2000/svg">
<path d="M7.85714 20.2143V11.0714C7.85714 8.64659 8.82041 6.32107 10.535 4.60645C12.2496 2.89184 14.5752 1.92857 17 1.92857C19.4248 1.92857 21.7504 2.89184 23.465 4.60645C25.1796 6.32107 26.1429 8.64659 26.1429 11.0714V20.2143M1 24.7857C1 23.5733 1.48163 22.4105 2.33894 21.5532C3.19625 20.6959 4.35901 20.2143 5.57143 20.2143H28.4286C29.641 20.2143 30.8038 20.6959 31.6611 21.5532C32.5184 22.4105 33 23.5733 33 24.7857V38.5C33 39.7124 32.5184 40.8752 31.6611 41.7325C30.8038 42.5898 29.641 43.0714 28.4286 43.0714H5.57143C4.35901 43.0714 3.19625 42.5898 2.33894 41.7325C1.48163 40.8752 1 39.7124 1 38.5V24.7857ZM14.7143 31.6429C14.7143 32.2491 14.9551 32.8305 15.3838 33.2591C15.8124 33.6878 16.3938 33.9286 17 33.9286C17.6062 33.9286 18.1876 33.6878 18.6162 33.2591C19.0449 32.8305 19.2857 32.2491 19.2857 31.6429C19.2857 31.0367 19.0449 30.4553 18.6162 30.0266C18.1876 29.598 17.6062 29.3571 17 29.3571C16.3938 29.3571 15.8124 29.598 15.3838 30.0266C14.9551 30.4553 14.7143 31.0367 14.7143 31.6429Z" stroke="black" stroke-width="2" stroke-linecap="round" stroke-linejoin="round"/>
</svg>
